<svg width="54" height="59" viewBox="0 0 54 59" fill="none" xmlns="http://www.w3.org/2000/svg">
<path fill-rule="evenodd" clip-rule="evenodd" d="M27 0C27.7349 9.53161e-05 28.4442 0.265371 28.9934 0.74551C29.5425 1.22565 29.8934 1.88726 29.9794 2.60485L30.0004 2.95V5.9H33.0007C33.7655 5.90083 34.501 6.18874 35.0571 6.7049C35.6132 7.22106 35.9478 7.92651 35.9926 8.67711C36.0374 9.42772 35.7891 10.1668 35.2982 10.7434C34.8074 11.32 34.1112 11.6905 33.3518 11.7794L33.0007 11.8H30.0004V16.225L40.8017 24.19C41.1268 24.4298 41.3989 24.7321 41.6016 25.0784C41.8043 25.4248 41.9333 25.808 41.9808 26.2049L42.0019 26.55V30.8718L49.6678 35.8956C50.026 36.1308 50.3285 36.4391 50.5548 36.7995C50.781 37.1599 50.9257 37.5639 50.979 37.9842L51.003 38.35V53.1C51.7677 53.1008 52.5032 53.3887 53.0593 53.9049C53.6154 54.4211 53.95 55.1265 53.9948 55.8771C54.0397 56.6277 53.7913 57.3668 53.3004 57.9434C52.8096 58.52 52.1134 58.8905 51.354 58.9794L51.003 59H2.99705C2.23231 58.9992 1.49676 58.7113 0.940687 58.1951C0.384611 57.6789 0.0499776 56.9735 0.00516074 56.2229C-0.0396561 55.4723 0.208726 54.7332 0.699557 54.1566C1.19039 53.58 1.88662 53.2095 2.646 53.1207L2.99705 53.1V38.35C2.99683 37.9263 3.08944 37.5075 3.26858 37.1222C3.44772 36.7368 3.70918 36.3939 4.03517 36.1169L4.33521 35.8956L11.9982 30.8718V26.55C11.9981 26.1506 12.0805 25.7554 12.2404 25.3883C12.4002 25.0212 12.6343 24.6898 12.9283 24.4142L13.1983 24.19L23.9996 16.225V11.8H20.9993C20.2345 11.7992 19.499 11.5113 18.9429 10.9951C18.3868 10.4789 18.0522 9.77349 18.0074 9.02289C17.9626 8.27228 18.2109 7.53318 18.7018 6.95659C19.1926 6.38001 19.8888 6.00946 20.6482 5.92065L20.9993 5.9H23.9996V2.95C23.9996 2.16761 24.3157 1.41727 24.8784 0.864035C25.4411 0.310803 26.2043 0 27 0ZM27 21.3875L17.9989 28.025V32.45C17.9991 32.8737 17.9065 33.2925 17.7274 33.6778C17.5482 34.0632 17.2868 34.4061 16.9608 34.6832L16.6607 34.9044L8.99778 39.9282V53.1H17.9989V44.25C17.9966 41.9463 18.9081 39.7326 20.5395 38.0791C22.171 36.4257 24.3939 35.4629 26.7359 35.3953C29.0779 35.3277 31.3544 36.1606 33.0817 37.7171C34.809 39.2736 35.8509 41.431 35.9861 43.7308L36.0011 44.25V53.1H45.0022V39.9282L37.3363 34.9044C36.978 34.6692 36.6755 34.3609 36.4493 34.0005C36.223 33.6401 36.0784 33.2361 36.0251 32.8158L36.0011 32.45V28.025L27 21.3875ZM27 41.3C26.2651 41.3001 25.5558 41.5654 25.0066 42.0455C24.4575 42.5257 24.1066 43.1873 24.0206 43.9049L23.9996 44.25V53.1H30.0004V44.25L29.9794 43.9049C29.8934 43.1873 29.5425 42.5257 28.9934 42.0455C28.4442 41.5654 27.7349 41.3001 27 41.3Z" fill="#99CAF5"/>
</svg>
