<svg width="84" height="91" viewBox="0 0 84 91" fill="none" xmlns="http://www.w3.org/2000/svg">
<path fill-rule="evenodd" clip-rule="evenodd" d="M42 0C43.1296 0.000147013 44.2198 0.409301 45.0639 1.14985C45.908 1.89041 46.4472 2.91086 46.5794 4.01765L46.6117 4.55V9.1H51.2234C52.3988 9.10129 53.5294 9.54535 54.3841 10.3415C55.2388 11.1376 55.7531 12.2256 55.822 13.3833C55.8909 14.5411 55.5091 15.681 54.7547 16.5703C54.0003 17.4597 52.9301 18.0312 51.7629 18.1681L51.2234 18.2H46.6117V25.025L63.2137 37.31C63.7134 37.6799 64.1317 38.1461 64.4433 38.6803C64.7548 39.2145 64.9531 39.8056 65.0261 40.4177L65.0584 40.95V47.6158L76.8412 55.3644C77.3918 55.7272 77.8568 56.2026 78.2046 56.7585C78.5523 57.3144 78.7747 57.9376 78.8565 58.5858L78.8934 59.15V81.9C80.0689 81.9013 81.1994 82.3454 82.0541 83.1415C82.9088 83.9376 83.4232 85.0256 83.4921 86.1833C83.561 87.3411 83.1792 88.481 82.4248 89.3703C81.6703 90.2597 80.6002 90.8312 79.433 90.9682L78.8934 91H5.10657C3.93115 90.9987 2.80058 90.5547 1.94587 89.7585C1.09116 88.9624 0.576817 87.8744 0.507932 86.7167C0.439047 85.5589 0.820819 84.419 1.57525 83.5297C2.32967 82.6404 3.39981 82.0688 4.567 81.9319L5.10657 81.9V59.15C5.10624 58.4965 5.24858 57.8506 5.52392 57.2563C5.79927 56.6619 6.20114 56.133 6.70221 55.7057L7.16338 55.3644L18.9416 47.6158V40.95C18.9415 40.334 19.0681 39.7244 19.3139 39.1582C19.5596 38.5919 19.9193 38.0808 20.3712 37.6558L20.7863 37.31L37.3883 25.025V18.2H32.7766C31.6012 18.1987 30.4707 17.7547 29.6159 16.9585C28.7612 16.1624 28.2469 15.0744 28.178 13.9167C28.1091 12.7589 28.4909 11.619 29.2453 10.7297C29.9997 9.84035 31.0699 9.26882 32.2371 9.13185L32.7766 9.1H37.3883V4.55C37.3883 3.34327 37.8742 2.18595 38.7391 1.33266C39.6039 0.479373 40.7769 0 42 0ZM42 32.9875L28.165 43.225V50.05C28.1653 50.7035 28.023 51.3494 27.7476 51.9437C27.4723 52.5381 27.0704 53.067 26.5693 53.4944L26.1082 53.8356L14.3299 61.5843V81.9H28.165V68.25C28.1615 64.6969 29.5624 61.2825 32.07 58.7322C34.5776 56.182 37.9943 54.697 41.594 54.5927C45.1937 54.4885 48.6928 55.7732 51.3477 58.1739C54.0027 60.5745 55.6042 63.902 55.812 67.4492L55.835 68.25V81.9H69.6701V61.5843L57.8872 53.8356C57.3366 53.4728 56.8716 52.9974 56.5239 52.4415C56.1761 51.8856 55.9538 51.2624 55.8719 50.6142L55.835 50.05V43.225L42 32.9875ZM42 63.7C40.8704 63.7001 39.7802 64.1093 38.9361 64.8499C38.092 65.5904 37.5528 66.6109 37.4206 67.7177L37.3883 68.25V81.9H46.6117V68.25L46.5794 67.7177C46.4472 66.6109 45.908 65.5904 45.0639 64.8499C44.2198 64.1093 43.1296 63.7001 42 63.7Z" fill="#99CAF5"/>
</svg>
