<svg width="18" height="18" viewBox="0 0 18 18" fill="none" xmlns="http://www.w3.org/2000/svg">
<path d="M10.9146 3.95817C11.6879 4.10903 12.3985 4.48721 12.9556 5.04429C13.5127 5.60136 13.8908 6.31201 14.0417 7.08525M10.9146 0.791504C12.5211 0.969974 14.0192 1.68939 15.1629 2.83163C16.3066 3.97388 17.0279 5.47105 17.2084 7.07734M16.4167 13.3948V15.7698C16.4176 15.9903 16.3724 16.2086 16.2841 16.4106C16.1958 16.6126 16.0662 16.7939 15.9038 16.943C15.7413 17.092 15.5495 17.2055 15.3406 17.2761C15.1318 17.3468 14.9104 17.373 14.6909 17.3532C12.2548 17.0885 9.91474 16.256 7.85878 14.9228C5.94598 13.7073 4.32425 12.0856 3.10878 10.1728C1.77084 8.10746 0.938221 5.75604 0.678362 3.309C0.658578 3.09008 0.684596 2.86944 0.754758 2.66112C0.82492 2.45281 0.937689 2.26138 1.08588 2.09904C1.23408 1.93669 1.41446 1.80698 1.61553 1.71817C1.8166 1.62935 2.03396 1.58338 2.25378 1.58317H4.62878C5.01298 1.57939 5.38545 1.71544 5.67676 1.96597C5.96807 2.21649 6.15834 2.5644 6.21211 2.94484C6.31235 3.70489 6.49826 4.45116 6.76628 5.16942C6.87279 5.45278 6.89584 5.76073 6.8327 6.05678C6.76956 6.35284 6.62288 6.62459 6.41003 6.83984L5.40461 7.84525C6.53159 9.82723 8.17264 11.4683 10.1546 12.5953L11.16 11.5898C11.3753 11.377 11.647 11.2303 11.9431 11.1672C12.2391 11.104 12.5471 11.1271 12.8304 11.2336C13.5487 11.5016 14.295 11.6875 15.055 11.7878C15.4396 11.842 15.7908 12.0357 16.0419 12.332C16.2929 12.6283 16.4263 13.0066 16.4167 13.3948Z" stroke="#2B2E31" stroke-linecap="round" stroke-linejoin="round"/>
</svg>
