<?xml version="1.0" standalone="no"?>
<!DOCTYPE svg PUBLIC "-//W3C//DTD SVG 20010904//EN"
 "http://www.w3.org/TR/2001/REC-SVG-20010904/DTD/svg10.dtd">
<svg version="1.0" xmlns="http://www.w3.org/2000/svg"
 width="500.000000pt" height="500.000000pt" viewBox="0 0 500.000000 500.000000"
 preserveAspectRatio="xMidYMid meet">
<metadata>
Created by potrace 1.14, written by Peter Selinger 2001-2017
</metadata>
<g transform="translate(0.000000,500.000000) scale(0.100000,-0.100000)"
fill="#000000" stroke="none">
<path d="M0 2500 l0 -2500 2500 0 2500 0 0 2500 0 2500 -2500 0 -2500 0 0
-2500z m2642 326 l3 -199 85 -28 c47 -15 178 -58 293 -94 l207 -66 0 -239 0
-240 85 0 c84 0 85 0 85 -25 l0 -25 -900 0 -900 0 0 25 c0 25 1 25 85 25 l85
0 2 364 3 363 135 -53 c74 -29 140 -53 147 -54 9 0 13 34 15 122 l3 122 240
113 c132 63 258 122 280 132 l40 17 2 -30 c2 -17 4 -121 5 -230z m-1232 -1140
c0 -25 -5 -35 -20 -39 -18 -5 -20 -14 -20 -85 0 -72 2 -81 20 -87 15 -5 20
-15 20 -41 l0 -34 -75 0 -75 0 0 34 c0 19 5 38 10 41 6 3 10 44 10 91 l0 84
-40 0 -40 0 0 -84 c0 -47 5 -88 10 -91 6 -3 10 -22 10 -41 l0 -34 -75 0 -75 0
0 34 c0 26 5 36 20 41 18 6 20 15 20 87 0 71 -2 80 -20 85 -15 4 -20 14 -20
39 l0 34 170 0 170 0 0 -34z m307 8 c30 -23 33 -30 33 -78 0 -49 -3 -56 -34
-80 -27 -20 -46 -26 -85 -26 -54 0 -70 -19 -33 -39 12 -7 18 -20 17 -38 l-1
-28 -82 -3 -82 -3 0 35 c0 26 5 36 20 41 18 6 20 15 20 85 0 70 -2 79 -20 85
-15 5 -20 15 -20 41 l0 34 117 0 c109 0 118 -2 150 -26z m299 0 l34 -26 0
-107 0 -106 -34 -27 c-31 -25 -44 -28 -103 -28 -61 1 -71 4 -100 30 l-33 30 0
102 0 103 32 27 c29 24 42 27 101 28 59 0 73 -4 103 -26z m242 -5 c36 -65 36
-65 66 -15 l27 46 69 0 70 0 0 -34 c0 -21 -6 -36 -15 -40 -12 -4 -15 -24 -15
-86 0 -62 3 -82 15 -86 9 -4 15 -19 15 -40 l0 -34 -85 0 -85 0 0 34 c0 28 4
35 25 40 22 6 25 11 25 56 0 28 -2 50 -5 50 -2 0 -16 -20 -31 -45 -15 -27 -33
-45 -44 -45 -11 0 -29 18 -44 45 -15 25 -29 45 -31 45 -3 0 -5 -22 -5 -50 0
-45 3 -50 25 -56 21 -5 25 -12 25 -40 l0 -34 -85 0 -85 0 0 34 c0 26 5 36 20
41 18 6 20 15 20 85 0 70 -2 79 -20 85 -15 5 -20 15 -20 41 l0 34 75 0 c74 0
76 -1 93 -31z m538 -85 c24 -96 33 -118 51 -127 17 -8 23 -19 23 -44 l0 -33
-85 0 -85 0 0 29 c0 16 6 34 14 41 24 19 7 40 -30 40 -33 0 -47 -21 -24 -35 6
-3 10 -22 10 -41 l0 -34 -70 0 -70 0 0 34 c0 24 5 36 18 40 11 4 24 31 39 83
19 68 20 79 8 89 -8 6 -15 25 -15 43 l0 31 94 0 94 0 28 -116z m394 82 c0 -19
-4 -38 -10 -41 -5 -3 -10 -42 -10 -86 0 -62 3 -81 15 -85 9 -4 15 -19 15 -40
l0 -34 -80 0 -80 0 0 34 c0 21 6 36 15 40 12 4 15 24 15 86 l0 80 -30 0 -30 0
0 -89 0 -90 -37 -30 c-22 -18 -49 -31 -65 -31 -25 0 -28 4 -28 34 0 21 6 36
15 40 12 4 15 25 15 95 l0 89 38 31 c36 29 40 30 140 31 l102 0 0 -34z m221
17 c2 -32 -3 -48 -17 -56 -8 -4 -14 -15 -14 -22 0 -11 14 -15 54 -15 44 0 60
-5 85 -26 28 -23 31 -32 31 -79 0 -49 -3 -56 -33 -79 -32 -24 -41 -26 -150
-26 l-117 0 0 34 c0 26 5 36 20 41 18 6 20 15 20 85 0 70 -2 79 -20 85 -15 5
-20 15 -20 41 l0 34 80 0 c69 0 80 -2 81 -17z m509 -17 c0 -26 -5 -36 -20 -41
-18 -6 -20 -15 -20 -85 0 -70 2 -79 20 -85 15 -5 20 -15 20 -41 l0 -34 -75 0
-75 0 0 34 c0 19 5 38 10 41 6 3 10 44 10 91 l0 84 -40 0 -40 0 0 -84 c0 -47
5 -88 10 -91 6 -3 10 -22 10 -41 l0 -34 -75 0 -75 0 0 34 c0 26 5 36 20 41 18
6 20 15 20 85 0 70 -2 79 -20 85 -15 5 -20 15 -20 41 l0 34 170 0 170 0 0 -34z"/>
<path d="M2353 2896 l-233 -109 0 -118 0 -117 75 -27 75 -28 0 -268 0 -269 45
0 45 0 0 375 c0 285 3 375 12 375 7 0 56 -14 110 -32 53 -18 100 -30 103 -26
3 3 4 84 3 180 l-3 174 -232 -110z"/>
<path d="M2410 2300 l0 -340 385 0 385 0 0 220 0 219 -202 65 c-432 138 -554
176 -561 176 -4 0 -7 -153 -7 -340z m390 130 c156 -49 285 -90 287 -90 1 0 3
-13 3 -29 l0 -30 -72 24 c-40 13 -173 56 -295 95 -211 67 -223 72 -223 95 0
14 4 25 8 25 5 0 136 -40 292 -90z m-5 -150 c154 -33 283 -60 287 -60 5 0 8
-14 8 -31 0 -24 -3 -29 -18 -25 -9 3 -132 31 -272 61 -140 30 -265 57 -277 60
-16 4 -23 13 -23 30 0 14 3 25 8 25 4 0 133 -27 287 -60z m273 -205 c15 -4 22
-13 22 -30 0 -14 -1 -25 -3 -25 -2 0 -133 25 -479 92 -106 20 -108 21 -108 48
l0 27 273 -53 c149 -29 282 -56 295 -59z"/>
<path d="M1820 2286 l0 -326 200 0 200 0 0 249 0 249 -42 17 c-24 9 -106 41
-183 70 -77 30 -148 57 -157 60 -17 7 -18 -12 -18 -319z"/>
<path d="M1580 1615 c0 -24 3 -26 38 -23 29 2 37 7 37 23 0 16 -8 21 -37 23
-35 3 -38 1 -38 -23z"/>
<path d="M1876 1625 c-8 -21 -8 -108 0 -129 4 -10 18 -16 40 -16 40 0 47 17
42 101 l-3 54 -36 3 c-26 2 -38 -1 -43 -13z"/>
<path d="M2677 1609 c-10 -37 -8 -49 8 -49 16 0 18 23 6 54 -7 18 -8 18 -14
-5z"/>
<path d="M3380 1505 c0 -24 3 -26 38 -23 29 2 37 7 37 23 0 16 -8 21 -37 23
-35 3 -38 1 -38 -23z"/>
</g>
</svg>
